<?xml version="1.0" encoding="UTF-8"?>
<svg version="1.1" xmlns="http://www.w3.org/2000/svg" width="1203" height="445">
<path d="M0 0 C396.99 0 793.98 0 1203 0 C1203 146.85 1203 293.7 1203 445 C806.01 445 409.02 445 0 445 C0 298.15 0 151.3 0 0 Z " fill="#FDFDFD" transform="translate(0,0)"/>
<path d="M0 0 C17.10565932 14.93733631 29.2447322 35.56011332 31.75 58.3125 C32.63426195 74.02599959 32.36535294 88.5172009 26.75 103.3125 C26.08097656 105.16875 26.08097656 105.16875 25.3984375 107.0625 C21.17327098 117.82605271 15.12368315 127.29201262 6.75 135.3125 C8.32836813 139.18667633 10.45818269 141.73629515 13.75 144.3125 C15.68783466 144.18331102 17.62564022 144.05321976 19.5625 143.91015625 C26.01432604 145.0968314 30.87921231 153.47401539 34.75 158.3125 C35.513125 158.910625 36.27625 159.50875 37.0625 160.125 C39.33341557 161.97341965 40.9712974 163.66202977 42.83984375 165.87890625 C47.70720755 171.50793001 53.07310363 176.61883291 58.4296875 181.77734375 C63.41828957 186.67418224 67.2881916 190.6180328 68.1875 197.8125 C67.49814985 203.32730123 64.77175111 206.57037746 60.6875 210.125 C56.3143491 213.38160173 53.12717925 213.76059827 47.75 213.3125 C41.26162871 210.27079404 36.63059202 205.70753975 31.5703125 200.70703125 C30.71694305 199.86839035 29.86357361 199.02974945 28.98434448 198.16569519 C27.19022273 196.39544505 25.40026635 194.62096454 23.61425781 192.8425293 C20.88186602 190.13181156 18.12153848 187.45181508 15.359375 184.77148438 C13.61538539 183.04348356 11.87313709 181.31372317 10.1328125 179.58203125 C9.30685577 178.78795364 8.48089905 177.99387604 7.62991333 177.17573547 C3.22205787 172.71509536 0.82714552 169.6403069 0.67404175 163.24833679 C0.69910797 162.60951065 0.72417419 161.97068451 0.75 161.3125 C1.07828283 158.18987482 1.07828283 158.18987482 -1.21875 156.05078125 C-2.0540625 155.25027344 -2.889375 154.44976562 -3.75 153.625 C-4.5853125 152.81675781 -5.420625 152.00851562 -6.28125 151.17578125 C-6.9309375 150.56089844 -7.580625 149.94601562 -8.25 149.3125 C-9.05179688 149.82039062 -9.85359375 150.32828125 -10.6796875 150.8515625 C-32.42827549 164.18679537 -58.62697592 169.0408108 -83.8125 164.1875 C-109.16519622 157.55773924 -130.7319415 142.76267918 -144.5546875 120.29296875 C-158.47931401 95.81257698 -161.47646226 70.03647425 -154.40625 43.09765625 C-150.680532 30.87665884 -144.04105442 20.33645455 -136.25 10.3125 C-135.61707031 9.47460938 -134.98414063 8.63671875 -134.33203125 7.7734375 C-120.80042084 -8.22077368 -98.8031867 -19.61789564 -78.19140625 -22.37109375 C-48.97497851 -24.7165156 -22.79292805 -19.06773335 0 0 Z " fill="#FAFBFC" transform="translate(417.25,148.6875)"/>
<path d="M0 0 C0.84929077 -0.00073013 1.69858154 -0.00146027 2.5736084 -0.00221252 C5.37158817 0.00126179 8.16788845 0.04011458 10.96557617 0.0793457 C12.90898224 0.0886744 14.8524001 0.09579025 16.79582214 0.1007843 C21.90396752 0.11984957 27.01139889 0.16894657 32.1192627 0.2243042 C37.33421165 0.2755067 42.54927628 0.2983005 47.7644043 0.32348633 C57.99193106 0.37706554 68.21892855 0.46237287 78.44604492 0.56762695 C78.11604492 3.53762695 77.78604492 6.50762695 77.44604492 9.56762695 C51.04604492 9.56762695 24.64604492 9.56762695 -2.55395508 9.56762695 C-2.88395508 11.54762695 -3.21395508 13.52762695 -3.55395508 15.56762695 C22.51604492 15.56762695 48.58604492 15.56762695 75.44604492 15.56762695 C75.44604492 25.13762695 75.44604492 34.70762695 75.44604492 44.56762695 C76.76516516 51.20719882 77.99851684 56.98801064 80.50073242 63.17578125 C81.70699816 67.50394495 81.69600821 71.43526243 81.64135742 75.90356445 C81.63852753 76.78291656 81.63569763 77.66226868 81.63278198 78.56826782 C81.62164204 81.35986289 81.59654903 84.15112986 81.57104492 86.94262695 C81.56100712 88.84236188 81.55188267 90.74210187 81.54370117 92.6418457 C81.52172298 97.28389802 81.48723602 101.92570697 81.44604492 106.56762695 C82.42186523 105.97852539 83.39768555 105.38942383 84.40307617 104.7824707 C85.68791609 104.02282083 86.97308985 103.26373541 88.25854492 102.50512695 C88.90114258 102.11518555 89.54374023 101.72524414 90.20581055 101.32348633 C91.90893642 100.32631937 93.6755035 99.43950009 95.44604492 98.56762695 C96.43604492 98.89762695 97.42604492 99.22762695 98.44604492 99.56762695 C96.34860417 105.8599492 88.14231143 108.73463069 82.49682617 111.6262207 C73.69288407 115.98706145 64.81889023 119.39165723 55.3605957 122.02954102 C53.51655281 122.54781066 51.68216003 123.10004823 49.84838867 123.65356445 C31.07559055 129.08725792 12.29941214 130.00383322 -7.13598633 129.8605957 C-9.41525489 129.85498225 -11.69452714 129.85072046 -13.97380066 129.84773254 C-19.89690613 129.83642127 -25.81978162 129.80707659 -31.74279785 129.77362061 C-37.81718843 129.74261942 -43.89161712 129.7291638 -49.96606445 129.71411133 C-61.82879425 129.68219016 -73.69135535 129.63116553 -85.55395508 129.56762695 C-85.55395508 127.91762695 -85.55395508 126.26762695 -85.55395508 124.56762695 C-81.92395508 124.56762695 -78.29395508 124.56762695 -74.55395508 124.56762695 C-74.55395508 108.72762695 -74.55395508 92.88762695 -74.55395508 76.56762695 C-76.53395508 76.56762695 -78.51395508 76.56762695 -80.55395508 76.56762695 C-82.49145508 75.50512695 -82.49145508 75.50512695 -83.55395508 73.56762695 C-83.15806603 68.47674122 -81.87607858 64.62002247 -79.61645508 60.06762695 C-77.10142638 54.86652172 -77.10142638 54.86652172 -75.36645508 49.38012695 C-74.55395508 46.56762695 -74.55395508 46.56762695 -71.55395508 44.56762695 C-69.59870911 44.32711792 -69.59870911 44.32711792 -67.35791016 44.34057617 C-66.09694267 44.34080276 -66.09694267 44.34080276 -64.8105011 44.34103394 C-63.45567879 44.35651779 -63.45567879 44.35651779 -62.07348633 44.37231445 C-60.68150276 44.3765593 -60.68150276 44.3765593 -59.26139832 44.38088989 C-56.29628629 44.39208859 -53.33147587 44.41719261 -50.36645508 44.44262695 C-48.35669381 44.45265716 -46.34692782 44.46178293 -44.3371582 44.4699707 C-39.40930755 44.49202691 -34.48168246 44.52655466 -29.55395508 44.56762695 C-29.55395508 46.54762695 -29.55395508 48.52762695 -29.55395508 50.56762695 C-42.42395508 50.56762695 -55.29395508 50.56762695 -68.55395508 50.56762695 C-68.55395508 51.55762695 -68.55395508 52.54762695 -68.55395508 53.56762695 C-54.36395508 53.56762695 -40.17395508 53.56762695 -25.55395508 53.56762695 C-26.21395508 52.57762695 -26.87395508 51.58762695 -27.55395508 50.56762695 C-28.48062709 43.06073352 -25.8192048 37.50562947 -22.74145508 30.75512695 C-22.28963867 29.71936523 -21.83782227 28.68360352 -21.37231445 27.61645508 C-17.93252452 19.8882263 -17.93252452 19.8882263 -14.55395508 16.56762695 C-14.18683631 13.80996737 -14.17849439 11.13688315 -14.15551758 8.35668945 C-12.5214127 0.78038501 -6.78363396 -0.15328645 0 0 Z " fill="#0F5D9B" transform="translate(179.553955078125,189.432373046875)"/>
<path d="M0 0 C17.10565932 14.93733631 29.2447322 35.56011332 31.75 58.3125 C32.63426195 74.02599959 32.36535294 88.5172009 26.75 103.3125 C26.08097656 105.16875 26.08097656 105.16875 25.3984375 107.0625 C21.17327098 117.82605271 15.12368315 127.29201262 6.75 135.3125 C8.32836813 139.18667633 10.45818269 141.73629515 13.75 144.3125 C15.68783466 144.18331102 17.62564022 144.05321976 19.5625 143.91015625 C26.01432604 145.0968314 30.87921231 153.47401539 34.75 158.3125 C35.513125 158.910625 36.27625 159.50875 37.0625 160.125 C39.33341557 161.97341965 40.9712974 163.66202977 42.83984375 165.87890625 C47.70720755 171.50793001 53.07310363 176.61883291 58.4296875 181.77734375 C63.41828957 186.67418224 67.2881916 190.6180328 68.1875 197.8125 C67.49814985 203.32730123 64.77175111 206.57037746 60.6875 210.125 C56.3143491 213.38160173 53.12717925 213.76059827 47.75 213.3125 C41.26162871 210.27079404 36.63059202 205.70753975 31.5703125 200.70703125 C30.71694305 199.86839035 29.86357361 199.02974945 28.98434448 198.16569519 C27.19022273 196.39544505 25.40026635 194.62096454 23.61425781 192.8425293 C20.88186602 190.13181156 18.12153848 187.45181508 15.359375 184.77148438 C13.61538539 183.04348356 11.87313709 181.31372317 10.1328125 179.58203125 C9.30685577 178.78795364 8.48089905 177.99387604 7.62991333 177.17573547 C3.22205787 172.71509536 0.82714552 169.6403069 0.67404175 163.24833679 C0.69910797 162.60951065 0.72417419 161.97068451 0.75 161.3125 C1.07828283 158.18987482 1.07828283 158.18987482 -1.21875 156.05078125 C-2.0540625 155.25027344 -2.889375 154.44976562 -3.75 153.625 C-4.5853125 152.81675781 -5.420625 152.00851562 -6.28125 151.17578125 C-6.9309375 150.56089844 -7.580625 149.94601562 -8.25 149.3125 C-9.05179688 149.82039062 -9.85359375 150.32828125 -10.6796875 150.8515625 C-32.42827549 164.18679537 -58.62697592 169.0408108 -83.8125 164.1875 C-109.16519622 157.55773924 -130.7319415 142.76267918 -144.5546875 120.29296875 C-158.47931401 95.81257698 -161.47646226 70.03647425 -154.40625 43.09765625 C-150.680532 30.87665884 -144.04105442 20.33645455 -136.25 10.3125 C-135.61707031 9.47460938 -134.98414063 8.63671875 -134.33203125 7.7734375 C-120.80042084 -8.22077368 -98.8031867 -19.61789564 -78.19140625 -22.37109375 C-48.97497851 -24.7165156 -22.79292805 -19.06773335 0 0 Z M-114.25 16.3125 C-115.17232422 17.09173828 -115.17232422 17.09173828 -116.11328125 17.88671875 C-130.35191366 30.88151661 -137.05222446 50.16802291 -138.53515625 68.91796875 C-139.01229425 87.27740921 -133.57683604 105.51421731 -121.25 119.3125 C-120.45335937 120.31990234 -120.45335937 120.31990234 -119.640625 121.34765625 C-108.53721147 135.06830297 -90.6747519 144.07136216 -73.25 146.3125 C-50.96847973 148.0264631 -32.31775496 143.11948196 -14.48828125 129.1484375 C-1.12280547 117.56366063 6.15718379 104.27059063 10.75 87.3125 C10.9257959 86.6947168 11.1015918 86.07693359 11.28271484 85.44042969 C15.33847549 66.97125008 10.69626048 46.74515843 0.86621094 30.96972656 C-2.04394069 26.64905525 -5.57264949 22.97645397 -9.25 19.3125 C-9.82363281 18.67957031 -10.39726562 18.04664063 -10.98828125 17.39453125 C-20.53618877 7.07185319 -35.33572375 -0.70342728 -49.25 -2.6875 C-49.98734375 -2.79707031 -50.7246875 -2.90664062 -51.484375 -3.01953125 C-74.80801513 -6.0355192 -96.618859 0.92697765 -114.25 16.3125 Z " fill="#0F3963" transform="translate(417.25,148.6875)"/>
<path d="M0 0 C0 3 0 3 -2.08984375 5.20703125 C-3.02957031 6.06683594 -3.96929687 6.92664063 -4.9375 7.8125 C-11.23115607 13.81663971 -15.72398334 20.4594975 -20 28 C-20.40347656 28.70640625 -20.80695312 29.4128125 -21.22265625 30.140625 C-24.20156161 36.51409694 -23.88809529 44.18422109 -23 51 C-21.21144292 55.76386115 -18.95194031 60.07947022 -15.30078125 63.671875 C-14 65 -14 65 -14 67 C-13.44183594 67.26167969 -12.88367188 67.52335937 -12.30859375 67.79296875 C-9.75184105 69.12974808 -7.4501275 70.6932218 -5.0625 72.3125 C19.48040287 87.96022379 51.32164689 88.51426125 79.4375 88.1875 C81.74152752 88.17239642 84.04556483 88.15871824 86.34960938 88.14648438 C91.89995969 88.11399638 97.44993112 88.06426513 103 88 C103 87.34 103 86.68 103 86 C101.79085937 86.01160156 100.58171875 86.02320313 99.3359375 86.03515625 C77.13393532 86.18526198 77.13393532 86.18526198 70 85 C69.67 84.34 69.34 83.68 69 83 C72.41704542 82.07327101 75.76237604 81.70784634 79.2902832 81.40551758 C91.67342088 80.33513311 103.80949492 78.39807249 116 76 C117.7624707 75.6582373 117.7624707 75.6582373 119.56054688 75.30957031 C146.12545984 70.05352245 172.38277467 62.27284067 195.80859375 48.328125 C196.61425781 47.84859375 197.41992188 47.3690625 198.25 46.875 C198.89453125 46.45992188 199.5390625 46.04484375 200.203125 45.6171875 C202 45 202 45 203.796875 45.60546875 C204.52390625 46.06566406 205.2509375 46.52585937 206 47 C207.093125 47.67933594 208.18625 48.35867188 209.3125 49.05859375 C210.54302322 49.84945578 211.77215641 50.64248412 213 51.4375 C213.61617188 51.83259766 214.23234375 52.22769531 214.8671875 52.63476562 C217.99754706 54.65337732 221.05885593 56.71326049 224 59 C219.12583684 62.3015165 213.73368066 64.15435848 208.25 66.1875 C207.20030029 66.57824707 206.15060059 66.96899414 205.0690918 67.37158203 C174.81868944 78.49533007 174.81868944 78.49533007 159.35546875 81.33203125 C156.95998608 81.83378164 156.95998608 81.83378164 155.3425293 83.41967773 C152.16356142 85.56428004 148.86165215 86.19626209 145.1640625 86.953125 C143.9828331 87.20367645 143.9828331 87.20367645 142.77774048 87.45928955 C117.26747311 92.742244 91.27376942 96.70239415 65.1875 96.625 C64.39535095 96.62576538 63.6032019 96.62653076 62.78704834 96.62731934 C50.97340587 96.59081069 39.61497692 95.09480806 28 93 C52.71197896 97.80937598 76.32773698 100.25353102 101.5 100.3125 C103.11390121 100.31642761 103.11390121 100.31642761 104.76040649 100.32043457 C123.17507273 100.32521215 140.83168082 99.08681115 159 96 C160.02464355 95.8345166 161.04928711 95.6690332 162.10498047 95.49853516 C167.57851911 94.61086093 173.02167151 93.62355988 178.45507812 92.51660156 C180.14969141 92.17260677 181.84636067 91.83858739 183.54492188 91.51464844 C195.88495344 89.15096379 207.6940846 85.62729595 219.5625 81.5625 C220.23537048 81.3335202 220.90824097 81.10454041 221.60150146 80.86862183 C223.57235349 80.19379925 225.53919874 79.50890615 227.50390625 78.81640625 C228.13911194 78.5925676 228.77431763 78.36872894 229.42877197 78.1381073 C233.72105305 76.57961117 237.71522838 74.66555653 241.77734375 72.58984375 C247.04538083 70.08709261 250.51445184 69.62086546 256.2265625 70.55322266 C261.28136178 71.3675081 266.39106324 71.18436568 271.5 71.1875 C272.55058594 71.19974609 273.60117187 71.21199219 274.68359375 71.22460938 C281.66632269 71.23755634 288.17984248 70.49423759 295 69 C290.45799846 73.05840639 285.35302872 75.57111408 279.9375 78.25 C278.97030029 78.73090088 278.00310059 79.21180176 277.0065918 79.70727539 C267.53999391 84.34307986 257.86003816 88.2897076 248 92 C246.93265625 92.40863281 245.8653125 92.81726563 244.765625 93.23828125 C216.6047076 103.77827779 186.70052817 109.89441211 157 114 C155.9926178 114.1412178 154.9852356 114.28243561 153.94732666 114.42793274 C135.22342161 116.98389592 116.81156311 117.40967116 97.96173096 117.26428223 C94.98788063 117.24507862 92.01409195 117.24111793 89.04018784 117.2375679 C85.41739004 117.2323663 81.79464398 117.2179328 78.171875 117.203125 C76.86845154 117.19887512 75.56502808 117.19462524 74.22210693 117.19024658 C38.9825015 116.92006589 2.67473737 111.05514089 -27 91 C-27.91845703 90.39091797 -27.91845703 90.39091797 -28.85546875 89.76953125 C-36.65929398 83.97419723 -42.56693767 74.58184812 -44 65 C-45.2730222 50.26931457 -41.14358664 39.88492158 -31.96484375 28.46875 C-23.71192722 19.0026098 -14.47073174 10.7324956 -4.1796875 3.55859375 C-1.93233551 2.04160051 -1.93233551 2.04160051 0 0 Z " fill="#136EB2" transform="translate(83,252)"/>
<path d="M0 0 C7.92 0 15.84 0 24 0 C30.564586 7.26294621 30.564586 7.26294621 31.98046875 10.640625 C34.00147285 15.12281211 36.51841451 19.13028143 39.1875 23.25 C40.01477872 24.57622113 40.83907164 25.90431011 41.66015625 27.234375 C44.72932773 32.18440743 47.86098643 37.09399203 51 42 C53.24924884 39.88907833 54.90678016 37.76654558 56.53125 35.1484375 C57.0070752 34.38724609 57.48290039 33.62605469 57.97314453 32.84179688 C58.47700684 32.02775391 58.98086914 31.21371094 59.5 30.375 C60.56949191 28.66354944 61.63982365 26.95262344 62.7109375 25.2421875 C63.52643066 23.93846191 63.52643066 23.93846191 64.35839844 22.60839844 C66.91267677 18.54981579 69.51505331 14.522936 72.125 10.5 C72.58583984 9.7889209 73.04667969 9.0778418 73.52148438 8.34521484 C75.33315484 5.55347152 77.1539064 2.7691404 79 0 C86.92 0 94.84 0 103 0 C103 32.01 103 64.02 103 97 C95.74 97 88.48 97 81 97 C80.67 76.87 80.34 56.74 80 36 C76.7 41.28 73.4 46.56 70 52 C66.4375 57.125 66.4375 57.125 64.78515625 59.40625 C63.35643836 61.48211145 62.04007328 63.55976443 60.74609375 65.71875 C60.15646851 66.68723877 60.15646851 66.68723877 59.55493164 67.67529297 C58.78245445 68.95172642 58.02445536 70.23706207 57.28295898 71.53173828 C56.2109375 73.2890625 56.2109375 73.2890625 54 76 C51.54370117 76.38964844 51.54370117 76.38964844 49 76 C47.42944336 74.54150391 47.42944336 74.54150391 46.08984375 72.4765625 C45.5803418 71.71077881 45.07083984 70.94499512 44.54589844 70.15600586 C44.01512695 69.32077393 43.48435547 68.48554199 42.9375 67.625 C42.1007373 66.35378296 42.1007373 66.35378296 41.24707031 65.05688477 C40.07764393 63.27856038 38.91517454 61.49564392 37.75927734 59.70849609 C36.0363525 57.0559665 34.28472216 54.42533484 32.51953125 51.80078125 C30.42927363 48.69250721 28.34019971 45.58361515 26.265625 42.46484375 C25.64349121 41.53079712 25.64349121 41.53079712 25.00878906 40.57788086 C24 39 24 39 23 37 C22.67 57.13 22.34 77.26 22 98 C14.74 98 7.48 98 0 98 C0 65.66 0 33.32 0 0 Z " fill="#3FA2D8" transform="translate(816,186)"/>
<path d="M0 0 C8.25 0 16.5 0 25 0 C31.9560315 8.62547906 31.9560315 8.62547906 33.5703125 12.671875 C36.13041244 18.55419188 39.54782414 23.69324316 43.125 29 C44.23470485 30.68557203 45.34171019 32.37292613 46.4453125 34.0625 C46.91469238 34.77535156 47.38407227 35.48820312 47.86767578 36.22265625 C49 38 49 38 50 40 C54.10172971 38.63275676 55.14476232 35.91722775 57.25 32.375 C57.68489746 31.68728516 58.11979492 30.99957031 58.56787109 30.29101562 C61.33375004 25.90012287 63.80629268 21.45179326 66.1484375 16.8203125 C67.30618206 14.7129317 68.46503067 12.60615704 69.625 10.5 C70.09969727 9.46665527 70.57439453 8.43331055 71.06347656 7.36865234 C72.7265625 4.46875 72.7265625 4.46875 78 0 C85.92 0 93.84 0 102 0 C102 32.01 102 64.02 102 97 C94.74 97 87.48 97 80 97 C79.67 76.87 79.34 56.74 79 36 C76.69 39.63 74.38 43.26 72 47 C70.34258069 49.52805773 68.68088914 52.05035622 67 54.5625 C66.57920166 55.19381836 66.15840332 55.82513672 65.72485352 56.47558594 C62.65886421 61.05969778 59.50815279 65.57695567 56.27734375 70.046875 C54.83452519 72.07209523 54.83452519 72.07209523 54 75 C51.8046875 75.4140625 51.8046875 75.4140625 49 75 C46.6328125 72.2734375 46.6328125 72.2734375 44.125 68.375 C37.22906918 57.82000385 30.10255385 47.41707898 23 37 C22.67 56.47 22.34 75.94 22 96 C14.74 96 7.48 96 0 96 C0 64.32 0 32.64 0 0 Z " fill="#40A2D8" transform="translate(1034,187)"/>
<path d="M0 0 C12.313125 -0.0928125 12.313125 -0.0928125 24.875 -0.1875 C28.73227783 -0.22846802 28.73227783 -0.22846802 32.66748047 -0.27026367 C34.73404472 -0.2790357 36.80061421 -0.28667794 38.8671875 -0.29296875 C39.91720947 -0.30831665 40.96723145 -0.32366455 42.04907227 -0.33947754 C53.45518821 -0.34347594 63.21323342 2.45017789 71.56640625 10.51171875 C78.18547289 18.03967216 79.43855832 25.81966021 79.33984375 35.515625 C78.45033406 44.63565535 74.02350226 53.10135553 67 59 C63.80420926 61.11943067 60.5759658 62.62782708 57 64 C56.175 64.3196875 55.35 64.639375 54.5 64.96875 C44.04632784 68.25071684 32.80229294 67.18841209 22 67 C22 76.9 22 86.8 22 97 C14.74 97 7.48 97 0 97 C0 64.99 0 32.98 0 0 Z " fill="#153A62" transform="translate(623,187)"/>
<path d="M0 0 C1.26096748 0.00022659 1.26096748 0.00022659 2.54740906 0.00045776 C3.90223137 0.01594162 3.90223137 0.01594162 5.28442383 0.03173828 C6.67640739 0.03598312 6.67640739 0.03598312 8.09651184 0.04031372 C11.06162386 0.05151242 14.02643429 0.07661644 16.99145508 0.10205078 C19.00121634 0.11208098 21.01098234 0.12120676 23.02075195 0.12939453 C27.94860261 0.15145074 32.8762277 0.18597849 37.80395508 0.22705078 C37.80395508 2.20705078 37.80395508 4.18705078 37.80395508 6.22705078 C24.93395508 6.22705078 12.06395508 6.22705078 -1.19604492 6.22705078 C-1.19604492 7.21705078 -1.19604492 8.20705078 -1.19604492 9.22705078 C13.32395508 9.22705078 27.84395508 9.22705078 42.80395508 9.22705078 C42.80395508 9.88705078 42.80395508 10.54705078 42.80395508 11.22705078 C46.76395508 11.22705078 50.72395508 11.22705078 54.80395508 11.22705078 C54.80395508 33.99705078 54.80395508 56.76705078 54.80395508 80.22705078 C51.17395508 80.55705078 47.54395508 80.88705078 43.80395508 81.22705078 C43.47395508 81.88705078 43.14395508 82.54705078 42.80395508 83.22705078 C56.66395508 83.55705078 70.52395508 83.88705078 84.80395508 84.22705078 C84.80395508 84.55705078 84.80395508 84.88705078 84.80395508 85.22705078 C50.81395508 85.22705078 16.82395508 85.22705078 -18.19604492 85.22705078 C-18.19604492 83.57705078 -18.19604492 81.92705078 -18.19604492 80.22705078 C-14.56604492 80.22705078 -10.93604492 80.22705078 -7.19604492 80.22705078 C-7.19604492 64.38705078 -7.19604492 48.54705078 -7.19604492 32.22705078 C-9.17604492 32.22705078 -11.15604492 32.22705078 -13.19604492 32.22705078 C-15.13354492 31.16455078 -15.13354492 31.16455078 -16.19604492 29.22705078 C-15.80015587 24.13616504 -14.51816842 20.27944629 -12.25854492 15.72705078 C-9.74351622 10.52594555 -9.74351622 10.52594555 -8.00854492 5.03955078 C-6.71936624 0.5770092 -4.25594389 -0.02556122 0 0 Z " fill="#13609D" transform="translate(112.196044921875,233.77294921875)"/>
<path d="M0 0 C7.26 0 14.52 0 22 0 C22 14.19 22 28.38 22 43 C22.66 43 23.32 43 24 43 C24.20238281 42.46890625 24.40476562 41.9378125 24.61328125 41.390625 C26.60452428 37.95783421 29.3446492 35.49100784 32.1875 32.75 C36.46568097 28.55614124 40.5800299 24.32695987 44.4609375 19.7578125 C46.59929226 17.31552914 48.91540022 15.07404267 51.23046875 12.80078125 C53.78191751 10.20427379 56.14894305 7.46038441 58.51953125 4.69921875 C61.72293556 1.02248821 61.72293556 1.02248821 64.79736328 0.77294922 C65.95993652 0.78342285 67.12250977 0.79389648 68.3203125 0.8046875 C70.20556641 0.81435547 70.20556641 0.81435547 72.12890625 0.82421875 C74.10697266 0.84935547 74.10697266 0.84935547 76.125 0.875 C77.46483721 0.88503017 78.80468152 0.89415596 80.14453125 0.90234375 C83.42986573 0.92597925 86.71484465 0.95892766 90 1 C85.28167564 6.68773932 80.20383969 11.88256457 74.9375 17.0625 C70.03993477 21.88010498 65.34818326 26.68196173 61 32 C59.33729713 33.33827304 57.67083819 34.67189785 56 36 C54.62631655 37.63356951 53.28062485 39.2925002 52 41 C53.39998682 45.00511695 55.28702025 47.96139802 57.875 51.3125 C58.67550781 52.35921875 59.47601562 53.4059375 60.30078125 54.484375 C60.73471191 55.04833984 61.16864258 55.61230469 61.61572266 56.19335938 C64.12230561 59.46473749 66.5907591 62.76476553 69.0625 66.0625 C69.57570801 66.74634766 70.08891602 67.43019531 70.61767578 68.13476562 C74.15621911 72.85584102 77.65465807 77.60382283 81.109375 82.38671875 C82.48695376 84.29085137 83.87361752 86.18842108 85.265625 88.08203125 C86.00296875 89.08621094 86.7403125 90.09039062 87.5 91.125 C88.1703125 92.03507812 88.840625 92.94515625 89.53125 93.8828125 C91 96 91 96 91 97 C68.37251427 99.84454264 68.37251427 99.84454264 61.60644531 95.44287109 C57.59521047 91.32575901 54.93109419 86.42024313 52.29248047 81.3515625 C50.38223269 77.8760229 47.99374721 74.88229497 45.5 71.8125 C36 59.55842834 36 59.55842834 36 57 C30.67554314 61.57156336 30.67554314 61.57156336 25.625 66.4375 C24 68 24 68 22 68 C22 77.9 22 87.8 22 98 C14.74 98 7.48 98 0 98 C0 65.66 0 33.32 0 0 Z " fill="#3FA2D8" transform="translate(935,186)"/>
<path d="M0 0 C7.26 0 14.52 0 22 0 C22.04530861 8.33678399 22.08194924 16.67347113 22.10362434 25.01034546 C22.1140309 28.88210653 22.12813247 32.75377848 22.15087891 36.62548828 C22.17271949 40.36671822 22.18459212 44.10786281 22.18975449 47.84915161 C22.19343021 49.27158958 22.20060767 50.69402324 22.21146011 52.11642456 C22.31229243 65.88858908 20.61744986 77.79417248 10.921875 88.21484375 C-0.58071095 98.89915631 -14.37969689 99.5586647 -29.328125 99.33984375 C-36.04010007 99.07501304 -41.30155386 97.59805734 -47 94 C-48.2375 93.23816406 -48.2375 93.23816406 -49.5 92.4609375 C-57.87415823 86.64861057 -62.79054734 77.84861372 -65 68 C-65.40166923 62.81845758 -65.35077286 57.65654893 -65.29296875 52.46484375 C-65.28736306 50.97555471 -65.28309757 49.48626008 -65.28010559 47.9969635 C-65.26873325 44.10560427 -65.23933328 40.21458899 -65.20599365 36.32336426 C-65.17512711 32.34127452 -65.16156507 28.3591284 -65.14648438 24.37695312 C-65.11445481 16.58446158 -65.06175084 8.79232309 -65 1 C-58.07 1 -51.14 1 -44 1 C-43.9906543 2.69415039 -43.98130859 4.38830078 -43.97167969 6.13378906 C-43.93592957 11.77774973 -43.88199296 17.42134815 -43.81609726 23.06503677 C-43.77685393 26.48152632 -43.74455396 29.89776707 -43.72900391 33.31445312 C-43.71073917 37.25683566 -43.66068793 41.19852929 -43.609375 45.140625 C-43.60814636 46.34736877 -43.60691772 47.55411255 -43.60565186 48.79742432 C-43.44371575 58.32618141 -42.26129683 67.92838202 -35.5625 75.1875 C-29.72342259 79.66230699 -22.61459302 79.50287232 -15.5625 78.734375 C-11.15106576 77.83203618 -8.03876435 76.29199471 -5 73 C-0.23306882 65.52207154 -0.39584452 57.72374278 -0.390625 49.12109375 C-0.37561795 47.69904216 -0.35888556 46.27700784 -0.34051514 44.85499573 C-0.29711166 41.1413384 -0.27690326 37.42791606 -0.26177979 33.71405029 C-0.24211029 29.9127427 -0.20015195 26.11168532 -0.16015625 22.31054688 C-0.08514713 14.87373398 -0.03674372 7.43711844 0 0 Z " fill="#3D9FD5" transform="translate(778,186)"/>
<path d="M0 0 C0.99 1.485 0.99 1.485 2 3 C-1.3 7.95 -4.6 12.9 -8 18 C-11.52583609 16.58966556 -14.89218073 15.12353794 -18.3125 13.5 C-25.38693127 10.28089637 -33.09222212 7.24687892 -40.921875 9.5703125 C-44.39931834 10.93542456 -45.89366475 11.84049713 -48 15 C-48.31525218 18.46956742 -48.31525218 18.46956742 -47 22 C-42.03063159 26.4033379 -36.08231499 28.08036596 -29.75 29.5 C-16.01023564 32.89804912 -4.11295098 36.83057353 4.125 49.1875 C6.0587172 57.61298209 6.33471407 66.34249893 2.18359375 74.11328125 C-2.67186995 81.85317883 -9.19319392 86.92483601 -18.18359375 89.15234375 C-23.23226764 90.17548301 -28.17308546 90.34547214 -33.3125 90.3125 C-34.23603271 90.30686035 -35.15956543 90.3012207 -36.11108398 90.29541016 C-50.97617422 90.03166415 -64.12890926 85.37695025 -75 75 C-73.625 72.5 -73.625 72.5 -72 70 C-71.34 70 -70.68 70 -70 70 C-69.773125 69.46375 -69.54625 68.9275 -69.3125 68.375 C-67.56617944 65.21499137 -65.3597151 62.7323017 -63 60 C-58.45910073 61.68661973 -54.59372682 64.00392074 -50.5 66.5625 C-42.62101219 71.09291799 -33.95842677 71.93138226 -25 71 C-22.14727076 69.81807828 -20.19092707 68.19092707 -18 66 C-17.51904381 61.83171306 -17.48662795 59.7286571 -19.9375 56.25 C-25.51377104 52.1531478 -32.3341882 50.8563272 -38.98950195 49.26416016 C-50.37441293 46.51202018 -61.2787163 43.31054064 -68 33 C-72.09072513 26.18212478 -72.05538156 18.33847173 -70.53125 10.62890625 C-67.82872663 2.37655811 -61.98705262 -2.38403596 -54.7578125 -6.73828125 C-37.40384205 -14.67784564 -15.28073339 -10.43765942 0 0 Z " fill="#14375D" transform="translate(564,195)"/>
<path d="M0 0 C14.19 0 28.38 0 43 0 C43.32087047 16.64961241 43.32087047 16.64961241 43.390625 23.78125 C43.4383367 28.63613375 43.49459253 33.48980342 43.60351562 38.34375 C43.6908442 42.26016972 43.7383558 46.17528695 43.75901794 50.09260559 C43.77372926 51.5822245 43.80245963 53.07177702 43.84584045 54.56083679 C44.17188148 66.22278278 44.17188148 66.22278278 41.26025391 70.63841248 C39.27277949 72.63088674 37.24037366 74.30465051 35 76 C27.26703283 84.30526053 22.07366594 93.9466249 17 104 C11.39 104 5.78 104 0 104 C0 69.68 0 35.36 0 0 Z " fill="#2884BF" transform="translate(242,78)"/>
<path d="M0 0 C13.86 0 27.72 0 42 0 C42 22.44 42 44.88 42 68 C35.73 69.65 29.46 71.3 23 73 C19.56891516 74.30276239 16.39577928 75.54879589 13.125 77.125 C12.39410156 77.45886719 11.66320312 77.79273438 10.91015625 78.13671875 C7.08744369 79.9058507 3.64014851 81.8159109 0 84 C0 56.28 0 28.56 0 0 Z " fill="#217BB9" transform="translate(297,52)"/>
<path d="M0 0 C13.86 0 27.72 0 42 0 C42 23.1 42 46.2 42 70 C28.14 70 14.28 70 0 70 C0 46.9 0 23.8 0 0 Z " fill="#207CBA" transform="translate(189,112)"/>
<path d="M0 0 C2.31640625 1.79296875 2.31640625 1.79296875 4.5625 4.1875 C5.34238281 5.00992187 6.12226563 5.83234375 6.92578125 6.6796875 C9.04547818 9.05087389 11.01370126 11.51712658 13 14 C13.763125 14.598125 14.52625 15.19625 15.3125 15.8125 C17.58341557 17.66091965 19.2212974 19.34952977 21.08984375 21.56640625 C25.95720755 27.19543001 31.32310363 32.30633291 36.6796875 37.46484375 C41.66828957 42.36168224 45.5381916 46.3055328 46.4375 53.5 C45.74814985 59.01480123 43.02175111 62.25787746 38.9375 65.8125 C34.5643491 69.06910173 31.37717925 69.44809827 26 69 C19.51162871 65.95829404 14.88059202 61.39503975 9.8203125 56.39453125 C8.54025833 55.1365699 8.54025833 55.1365699 7.23434448 53.85319519 C5.44022273 52.08294505 3.65026635 50.30846454 1.86425781 48.5300293 C-0.86813398 45.81931156 -3.62846152 43.13931508 -6.390625 40.45898438 C-8.13461461 38.73098356 -9.87686291 37.00122317 -11.6171875 35.26953125 C-12.44314423 34.47545364 -13.26910095 33.68137604 -14.12008667 32.86323547 C-18.53173478 28.39875729 -20.91676873 25.25460091 -21.24494934 18.88243103 C-21 17 -21 17 -19.26953125 14.546875 C-18.45871094 13.95390625 -17.64789063 13.3609375 -16.8125 12.75 C-15.98492187 12.10160156 -15.15734375 11.45320313 -14.3046875 10.78515625 C-13.54414063 10.19605469 -12.78359375 9.60695313 -12 9 C-8.61212938 5.52908991 -8.61212938 5.52908991 -8 1 C-4.93973484 -0.02008839 -3.18121687 -0.39705414 0 0 Z " fill="#0E5A99" transform="translate(439,293)"/>
<path d="M0 0 C13.53 0 27.06 0 41 0 C41 10.89 41 21.78 41 33 C36.545 33.495 36.545 33.495 32 34 C27.16989511 36.80457703 24.49821226 38.93725125 22 44 C21.64827678 46.78348173 21.64827678 46.78348173 21.6875 49.6875 C21.34487081 55.40730976 19.79691105 58.76455243 16.6328125 63.46484375 C13.89341951 67.71811181 11.99286236 72.36174513 10 77 C6.7 77 3.4 77 0 77 C0 51.59 0 26.18 0 0 Z " fill="#3697CF" transform="translate(136,149)"/>
<path d="M0 0 C7.26 0 14.52 0 22 0 C22 31.68 22 63.36 22 96 C14.74 96 7.48 96 0 96 C0 64.32 0 32.64 0 0 Z " fill="#133961" transform="translate(583,187)"/>
<path d="M0 0 C0.72703125 0.46019531 1.4540625 0.92039062 2.203125 1.39453125 C3.29625 2.07386719 4.389375 2.75320313 5.515625 3.453125 C6.74614822 4.24398703 7.97528141 5.03701537 9.203125 5.83203125 C9.81929687 6.22712891 10.43546875 6.62222656 11.0703125 7.02929688 C14.20067206 9.04790857 17.26198093 11.10779174 20.203125 13.39453125 C15.32896184 16.69604775 9.93680566 18.54888973 4.453125 20.58203125 C3.40342529 20.97277832 2.35372559 21.36352539 1.2722168 21.76611328 C-28.97818556 32.88986132 -28.97818556 32.88986132 -44.44140625 35.7265625 C-46.88758829 36.26477522 -46.88758829 36.26477522 -48.85546875 37.96484375 C-51.20796444 39.69726512 -52.17727503 39.66271936 -55.046875 39.45703125 C-59.45620132 39.31644403 -63.55461837 39.70554329 -67.921875 40.33203125 C-78.81687102 41.86473086 -89.81250162 42.05608488 -100.796875 42.39453125 C-100.796875 41.73453125 -100.796875 41.07453125 -100.796875 40.39453125 C-102.00601563 40.40613281 -103.21515625 40.41773438 -104.4609375 40.4296875 C-126.66293968 40.57979323 -126.66293968 40.57979323 -133.796875 39.39453125 C-134.126875 38.73453125 -134.456875 38.07453125 -134.796875 37.39453125 C-131.37982958 36.46780226 -128.03449896 36.10237759 -124.5065918 35.80004883 C-112.12345412 34.72966436 -99.98738008 32.79260374 -87.796875 30.39453125 C-86.62189453 30.16668945 -85.44691406 29.93884766 -84.23632812 29.70410156 C-57.67141516 24.4480537 -31.41410033 16.66737192 -7.98828125 2.72265625 C-7.18261719 2.243125 -6.37695312 1.76359375 -5.546875 1.26953125 C-4.90234375 0.85445313 -4.2578125 0.439375 -3.59375 0.01171875 C-1.796875 -0.60546875 -1.796875 -0.60546875 0 0 Z " fill="#3297D1" transform="translate(286.796875,297.60546875)"/>
<path d="M0 0 C5.76358658 1.74654139 10.17874526 5.49259813 13.6796875 10.3125 C16.50396515 16.0613255 15.97937477 23.0152388 14.015625 29 C11.9576305 33.3700624 10.62409646 36.15233753 6 38 C5.01 35.03 5.01 35.03 4 32 C3.28650391 32.63615234 3.28650391 32.63615234 2.55859375 33.28515625 C-19.51501414 51.78145752 -50.26067845 55.62095941 -78 54 C-94.75770448 52.37661537 -94.75770448 52.37661537 -101 49 C-102.58203125 46.8359375 -102.58203125 46.8359375 -103.8125 44.375 C-104.23144531 43.55773437 -104.65039062 42.74046875 -105.08203125 41.8984375 C-105.38496094 41.27195313 -105.68789063 40.64546875 -106 40 C-105.12085938 40.16242188 -104.24171875 40.32484375 -103.3359375 40.4921875 C-97.46610197 41.32904566 -91.54074793 41.14443838 -85.625 41.125 C-83.82482422 41.13080078 -83.82482422 41.13080078 -81.98828125 41.13671875 C-80.85003906 41.13542969 -79.71179688 41.13414062 -78.5390625 41.1328125 C-76.97986084 41.13112061 -76.97986084 41.13112061 -75.38916016 41.12939453 C-73.04662053 41.26923115 -73.04662053 41.26923115 -72 40 C-70.49490261 39.70270843 -68.97914945 39.45903654 -67.4609375 39.23828125 C-49.33224784 36.4854793 -31.57692259 33.02187863 -14.5625 26 C-13.81186279 25.69223633 -13.06122559 25.38447266 -12.2878418 25.06738281 C-5.90990999 22.28339358 1.32539163 18.7858075 4 12 C4.47283757 7.66565556 4.48301351 5.70942609 2 2.0625 C1.01 1.0415625 1.01 1.0415625 0 0 Z " fill="#1977B7" transform="translate(398,213)"/>
<path d="M0 0 C10.23 0 20.46 0 31 0 C31 13.2 31 26.4 31 40 C27.926875 41.155 24.85375 42.31 21.6875 43.5 C20.74350342 43.86544922 19.79950684 44.23089844 18.8269043 44.60742188 C18.04226807 44.89166016 17.25763184 45.17589844 16.44921875 45.46875 C15.66893311 45.76201172 14.88864746 46.05527344 14.0847168 46.35742188 C9.48369414 47.31586205 4.69978905 47 0 47 C0 31.49 0 15.98 0 0 Z " fill="#F9FAFC" transform="translate(220,261)"/>
<path d="M0 0 C6.93 0 13.86 0 21 0 C21.33 18.15 21.66 36.3 22 55 C23.65 54.01 25.3 53.02 27 52 C27.66 52 28.32 52 29 52 C26.9605104 58.1184688 18.98805998 60.97807916 13.51953125 63.7890625 C4.68853673 68 4.68853673 68 0 68 C0 45.56 0 23.12 0 0 Z " fill="#1B73B0" transform="translate(368,172)"/>
<path d="M0 0 C13.86 0 27.72 0 42 0 C40.07601026 4.80997435 39.12905113 6.12426819 35.5 9.4375 C25.39407906 19.32436196 19.07373546 29.68971444 14.64697266 43.07910156 C12.94961614 48.11864913 10.94825372 53.05341683 9 58 C8.65066406 58.91394531 8.30132812 59.82789063 7.94140625 60.76953125 C7.61011719 61.58808594 7.27882812 62.40664062 6.9375 63.25 C6.65777344 63.95640625 6.37804687 64.6628125 6.08984375 65.390625 C4.64783164 67.5200479 3.44678265 67.49413163 1 68 C0.11062287 52.71614932 -0.12542459 37.49479654 -0.0625 22.1875 C-0.05746614 20.01888126 -0.05290663 17.85026137 -0.04882812 15.68164062 C-0.03885623 10.45437371 -0.01925725 5.22727319 0 0 Z " fill="#3B9DD5" transform="translate(189,112)"/>
<path d="M0 0 C6.93 0 13.86 0 21 0 C21 19.47 21 38.94 21 59 C5 63 5 63 0 63 C0 42.21 0 21.42 0 0 Z " fill="#1C76B3" transform="translate(340,184)"/>
<path d="M0 0 C6.28787698 2.75351476 10.13874924 5.74372622 14.625 10.875 C15.91454675 12.29608154 17.20775266 13.71384815 18.50390625 15.12890625 C19.20918457 15.89992676 19.91446289 16.67094727 20.64111328 17.46533203 C24.70877697 21.83611286 28.88822219 26.09428198 33.09466553 30.33087158 C34.06659939 31.31193917 35.03544329 32.29607844 36.0010376 33.28338623 C37.3694526 34.68201953 38.74902263 36.06971157 40.12890625 37.45703125 C40.92369385 38.26116455 41.71848145 39.06529785 42.53735352 39.89379883 C45.19445542 42.1663098 47.82287458 43.56668221 51 45 C51 45.66 51 46.32 51 47 C52.32 47.33 53.64 47.66 55 48 C53.77353256 51.81567647 51.41356386 53.41466233 47.92578125 55.234375 C44.73761641 56.5018807 42.37826712 56.48260959 39 56 C32.5208234 52.9233719 27.88815491 48.40251331 22.8203125 43.39453125 C21.54025833 42.1365699 21.54025833 42.1365699 20.23434448 40.85319519 C18.44022273 39.08294505 16.65026635 37.30846454 14.86425781 35.5300293 C12.13186602 32.81931156 9.37153848 30.13931508 6.609375 27.45898438 C4.86538539 25.73098356 3.12313709 24.00122317 1.3828125 22.26953125 C0.55685577 21.47545364 -0.26910095 20.68137604 -1.12008667 19.86323547 C-4.88859262 16.04960117 -7.39948839 13.37068271 -8.02392578 7.9206543 C-8.01603027 6.62683838 -8.00813477 5.33302246 -8 4 C-6.576875 3.566875 -6.576875 3.566875 -5.125 3.125 C-1.94788422 2.23174891 -1.94788422 2.23174891 0 0 Z " fill="#10365F" transform="translate(426,306)"/>
<path d="M0 0 C6.6 0 13.2 0 20 0 C20 15.84 20 31.68 20 48 C13.4 48 6.8 48 0 48 C0 32.16 0 16.32 0 0 Z " fill="#156DAC" transform="translate(314,200)"/>
<path d="M0 0 C4.9190625 -0.12375 4.9190625 -0.12375 9.9375 -0.25 C10.95191162 -0.28641602 11.96632324 -0.32283203 13.01147461 -0.36035156 C19.44704886 -0.43779079 24.44715709 0.6603518 30 4 C34.0486952 8.17521692 34.45893677 12.81744994 34.41796875 18.421875 C33.72382199 22.70352792 31.30825045 25.32911891 28 28 C24.70130892 30.01943811 22.19907572 30.23616038 18.359375 30.1953125 C17.39483398 30.19031738 16.43029297 30.18532227 15.43652344 30.18017578 C14.2199707 30.16196777 13.00341797 30.14375977 11.75 30.125 C7.8725 30.08375 3.995 30.0425 0 30 C0 20.1 0 10.2 0 0 Z " fill="#FAFAFB" transform="translate(645,205)"/>
<path d="M0 0 C3.63 0 7.26 0 11 0 C11 22.44 11 44.88 11 68 C6.38 68 1.76 68 -3 68 C-3 52.16 -3 36.32 -3 20 C-1.35 19.34 0.3 18.68 2 18 C3.32745166 16.88741409 3.32745166 16.88741409 3.25 14.0625 C3.20868317 9.10448014 1.53689994 4.6747373 0 0 Z " fill="#F8FAFB" transform="translate(156,246)"/>
<path d="M0 0 C9.24 0 18.48 0 28 0 C28 8.25 28 16.5 28 25 C24.7 25 21.4 25 18 25 C18 27.97 18 30.94 18 34 C16.35 34 14.7 34 13 34 C13 31.03 13 28.06 13 25 C8.71 25 4.42 25 0 25 C0 16.75 0 8.5 0 0 Z " fill="#F6F9FB" transform="translate(178,261)"/>
<path d="M0 0 C9.57 0 19.14 0 29 0 C29 6.6 29 13.2 29 20 C19.43 20 9.86 20 0 20 C0 13.4 0 6.8 0 0 Z " fill="#F9FBFC" transform="translate(113,277)"/>
<path d="M0 0 C6.6 0 13.2 0 20 0 C20 9.57 20 19.14 20 29 C8 29 8 29 0 28 C0 18.76 0 9.52 0 0 Z " fill="#3C9DD5" transform="translate(289,218)"/>
<path d="M0 0 C6.93 0 13.86 0 21 0 C21 1.32 21 2.64 21 4 C20.23558594 4.58265625 19.47117187 5.1653125 18.68359375 5.765625 C15.2667575 8.61050176 14.3602363 11.65186045 13.0625 15.75 C10.21880066 23.99227029 7.08805085 29.68396186 0 35 C0 23.45 0 11.9 0 0 Z " fill="#3DA3D9" transform="translate(368,172)"/>
<path d="M0 0 C6.6 0 13.2 0 20 0 C20 3.63 20 7.26 20 11 C19.67 11 19.34 11 19 11 C18.67 9.35 18.34 7.7 18 6 C10.40380892 12.81117437 7.48045725 21.69057027 4 31 C3.34 31 2.68 31 2 31 C1.67 36.28 1.34 41.56 1 47 C7.27 47 13.54 47 20 47 C20 47.33 20 47.66 20 48 C13.4 48 6.8 48 0 48 C0 32.16 0 16.32 0 0 Z " fill="#3493CB" transform="translate(314,200)"/>
<path d="M0 0 C0.99 0.495 0.99 0.495 2 1 C-14.74106146 14.46118004 -33.06691478 19.21142169 -54.125 19.125 C-55.55005859 19.13080078 -55.55005859 19.13080078 -57.00390625 19.13671875 C-62.11117638 19.12963516 -66.9672401 18.87829328 -72 18 C-72 17.34 -72 16.68 -72 16 C-71.40461426 15.97494385 -70.80922852 15.9498877 -70.19580078 15.92407227 C-67.50530864 15.80822506 -64.8151766 15.68544804 -62.125 15.5625 C-61.18785156 15.52318359 -60.25070312 15.48386719 -59.28515625 15.44335938 C-58.38925781 15.40146484 -57.49335938 15.35957031 -56.5703125 15.31640625 C-55.74289551 15.27974854 -54.91547852 15.24309082 -54.06298828 15.20532227 C-51.93820571 15.11761673 -51.93820571 15.11761673 -50 14 C-47.96112763 13.72815035 -45.91870297 13.48276799 -43.875 13.25 C-36.35446072 12.20845892 -29.36281097 10.16245465 -22.18847656 7.73828125 C-19.81470809 6.93749189 -17.43527348 6.1552775 -15.0546875 5.375 C-7.38185998 3.0434058 -7.38185998 3.0434058 0 0 Z " fill="#E8F2F8" transform="translate(389,241)"/>
<path d="M0 0 C1.51400391 0.01740234 1.51400391 0.01740234 3.05859375 0.03515625 C4.07050781 0.04417969 5.08242187 0.05320313 6.125 0.0625 C7.29869141 0.07990234 7.29869141 0.07990234 8.49609375 0.09765625 C10.34429267 7.55645902 10.67470661 14.41730318 10.49609375 22.09765625 C5.54609375 22.09765625 0.59609375 22.09765625 -4.50390625 22.09765625 C-4.36377279 18.61817226 -4.21708173 15.13918556 -4.06640625 11.66015625 C-4.02708984 10.66693359 -3.98777344 9.67371094 -3.94726562 8.65039062 C-3.90537109 7.70615234 -3.86347656 6.76191406 -3.8203125 5.7890625 C-3.78365479 4.91451416 -3.74699707 4.03996582 -3.70922852 3.13891602 C-3.40401909 0.10460445 -3.07817008 0.12005344 0 0 Z " fill="#F3F6F8" transform="translate(213.50390625,213.90234375)"/>
<path d="M0 0 C7.26 0 14.52 0 22 0 C22 0.66 22 1.32 22 2 C15.4 2 8.8 2 2 2 C2 33.02 2 64.04 2 96 C8.27 96 14.54 96 21 96 C21 89.07 21 82.14 21 75 C21.33 75 21.66 75 22 75 C22 82.59 22 90.18 22 98 C14.74 98 7.48 98 0 98 C0 65.66 0 33.32 0 0 Z " fill="#54ABD9" transform="translate(935,186)"/>
<path d="M0 0 C3.63 0 7.26 0 11 0 C11.79441072 1.87383903 12.58539974 3.74912886 13.375 5.625 C13.81585938 6.66914063 14.25671875 7.71328125 14.7109375 8.7890625 C16.55704575 13.38755032 18 17.00663539 18 22 C13.05 22 8.1 22 3 22 C2.49465273 19.27172635 1.99556155 16.54255306 1.5 13.8125 C1.35691406 13.04357422 1.21382812 12.27464844 1.06640625 11.48242188 C0.93105469 10.73154297 0.79570312 9.98066406 0.65625 9.20703125 C0.53056641 8.5210083 0.40488281 7.83498535 0.27539062 7.12817383 C0 5 0 5 0 0 Z " fill="#F3F6F9" transform="translate(232,214)"/>
<path d="M0 0 C3.96 0 7.92 0 12 0 C11.24956398 7.37928757 10.15687313 14.67313683 9 22 C4.71 22 0.42 22 -4 22 C-4.2248832 16.5957757 -3.4886411 12.18724757 -2 7.0625 C-1.80921875 6.37865234 -1.6184375 5.69480469 -1.421875 4.99023438 C-0.95595063 3.32455474 -0.47911589 1.66193325 0 0 Z " fill="#F5F8FA" transform="translate(190,214)"/>
<path d="M0 0 C1.51400391 0.01740234 1.51400391 0.01740234 3.05859375 0.03515625 C4.07050781 0.04417969 5.08242187 0.05320313 6.125 0.0625 C7.29869141 0.07990234 7.29869141 0.07990234 8.49609375 0.09765625 C6.96947517 7.60353093 4.80288551 14.79281568 2.49609375 22.09765625 C-1.79390625 22.09765625 -6.08390625 22.09765625 -10.50390625 22.09765625 C-6.49913998 0.2534766 -6.49913998 0.2534766 0 0 Z " fill="#F2F6F8" transform="translate(174.50390625,213.90234375)"/>
<path d="M0 0 C0.33 0 0.66 0 1 0 C1 9.24 1 18.48 1 28 C-5.77354143 28 -11.46861401 27.98586958 -18 27 C-17.67 24.69 -17.34 22.38 -17 20 C-16.34 20.99 -15.68 21.98 -15 23 C-14.38125 22.01 -13.7625 21.02 -13.125 20 C-12.42375 19.01 -11.7225 18.02 -11 17 C-10.34 17 -9.68 17 -9 17 C-8.6596875 15.9790625 -8.6596875 15.9790625 -8.3125 14.9375 C-6.68773854 11.3011291 -4.67196743 7.97170737 -2 5 C-1.34 5 -0.68 5 0 5 C0 3.35 0 1.7 0 0 Z " fill="#187ABC" transform="translate(307,219)"/>
<path d="M0 0 C13.53 0 27.06 0 41 0 C41 1.32 41 2.64 41 4 C28.13 4 15.26 4 2 4 C2.33 3.34 2.66 2.68 3 2 C2.01 1.34 1.02 0.68 0 0 Z " fill="#065490" transform="translate(108,235)"/>
<path d="M0 0 C0.91652344 0.01160156 1.83304687 0.02320313 2.77734375 0.03515625 C3.69644531 0.04417969 4.61554688 0.05320312 5.5625 0.0625 C6.27277344 0.07410156 6.98304688 0.08570313 7.71484375 0.09765625 C7.71484375 0.42765625 7.71484375 0.75765625 7.71484375 1.09765625 C12.47965121 1.12267341 17.24441909 1.14066382 22.00927734 1.15258789 C23.62484403 1.15756727 25.24040633 1.16435319 26.85595703 1.1730957 C36.19748548 1.2223226 45.41362926 1.11318767 54.71484375 0.09765625 C51.90287598 2.90962402 49.25258909 3.01709645 45.36607647 3.22070408 C44.55213326 3.21978229 43.73819006 3.21886049 42.89958191 3.21791077 C41.95873749 3.21928543 41.01789307 3.2206601 40.04853821 3.22207642 C39.02858261 3.21848114 38.00862701 3.21488586 36.95776367 3.21118164 C35.33269897 3.21140068 35.33269897 3.21140068 33.67480469 3.21162415 C30.09828684 3.21092817 26.52182124 3.20315045 22.9453125 3.1953125 C20.46381153 3.1934472 17.98231019 3.19202383 15.50080872 3.19102478 C8.97257468 3.1872084 2.44436293 3.17738559 -4.0838623 3.1663208 C-10.74665914 3.15554704 -17.40946245 3.15152311 -24.07226562 3.14648438 C-37.14323867 3.13576256 -50.21419627 3.11888914 -63.28515625 3.09765625 C-63.28515625 2.76765625 -63.28515625 2.43765625 -63.28515625 2.09765625 C-62.16096031 2.08219505 -62.16096031 2.08219505 -61.01405334 2.06642151 C-53.96525171 1.968611 -46.91653751 1.86612049 -39.86788273 1.75831699 C-36.24374045 1.70305528 -32.61959015 1.64963025 -28.99536133 1.6003418 C-25.50048526 1.55274593 -22.00571005 1.50040515 -18.5109539 1.4447155 C-16.52281802 1.41429212 -14.53460816 1.38883643 -12.54640198 1.36341858 C-10.7446476 1.33350075 -10.7446476 1.33350075 -8.90649414 1.30297852 C-7.8428212 1.28743423 -6.77914825 1.27188995 -5.6832428 1.25587463 C-2.91614927 1.0733103 -2.73492039 0.11687694 0 0 Z " fill="#074983" transform="translate(158.28515625,314.90234375)"/>
<path d="M0 0 C2.64 0 5.28 0 8 0 C8.33872513 1.41538717 8.67074624 2.83237963 9 4.25 C9.185625 5.03890625 9.37125 5.8278125 9.5625 6.640625 C10 9 10 9 10 13 C6.04 13 2.08 13 -2 13 C-2.19294408 8.17639811 -1.75747614 4.50353262 0 0 Z " fill="#F2F5F8" transform="translate(123,247)"/>
<path d="M0 0 C1.20628008 2.33214148 2.1654738 4.49642139 3 7 C-11.19 7 -25.38 7 -40 7 C-40 6.01 -40 5.02 -40 4 C-27.13 4 -14.26 4 -1 4 C-0.67 2.68 -0.34 1.36 0 0 Z " fill="#E5EDF3" transform="translate(151,236)"/>
<path d="M0 0 C2.97 0 5.94 0 9 0 C9.67305018 1.60149886 10.33822227 3.20631029 11 4.8125 C11.37125 5.70582031 11.7425 6.59914062 12.125 7.51953125 C13 10 13 10 13 13 C9.7 13 6.4 13 3 13 C2.01 8.71 1.02 4.42 0 0 Z " fill="#F6F8F9" transform="translate(137,247)"/>
<path d="M0 0 C13.86 0 27.72 0 42 0 C42 1.65 42 3.3 42 5 C41.01 4.34 40.02 3.68 39 3 C36.17016801 2.82806927 33.44118127 2.76791563 30.61328125 2.8046875 C29.79627243 2.8075174 28.97926361 2.81034729 28.13749695 2.81326294 C25.52901541 2.82445459 22.9208777 2.8495571 20.3125 2.875 C18.54362475 2.88503112 16.77474412 2.89415674 15.00585938 2.90234375 C10.670334 2.92268878 6.3355517 2.96183866 2 3 C1.67 12.57 1.34 22.14 1 32 C0.67 32 0.34 32 0 32 C0 21.44 0 10.88 0 0 Z " fill="#389FD5" transform="translate(297,52)"/>
<path d="M0 0 C2.64 0 5.28 0 8 0 C6.68 4.29 5.36 8.58 4 13 C1.03 13 -1.94 13 -5 13 C-4.48474397 7.71862571 -2.74522883 4.42778844 0 0 Z " fill="#F6F8FA" transform="translate(110,247)"/>
<path d="M0 0 C14.19 0 28.38 0 43 0 C43 0.33 43 0.66 43 1 C40.03 1 37.06 1 34 1 C34 1.66 34 2.32 34 3 C31.36 3.33 28.72 3.66 26 4 C25.9175 4.598125 25.835 5.19625 25.75 5.8125 C24.79544128 8.5966296 23.42867729 9.43311142 21 11 C20.67 8.36 20.34 5.72 20 3 C17.69 3 15.38 3 13 3 C13 2.67 13 2.34 13 2 C8.71 1.67 4.42 1.34 0 1 C0 0.67 0 0.34 0 0 Z " fill="#054F8F" transform="translate(111,243)"/>
<path d="M0 0 C0 1.32 0 2.64 0 4 C-5.3754363 5.30891238 -10.63724372 6.27729267 -16.15234375 6.75390625 C-18.09155094 6.910271 -18.09155094 6.910271 -20 8 C-21.99960012 8.039992 -24.00047242 8.04346799 -26 8 C-26 7.01 -26 6.02 -26 5 C-22.03069957 2.35379971 -18.1871532 1.7692057 -13.5625 0.8125 C-12.70333984 0.62236328 -11.84417969 0.43222656 -10.95898438 0.23632812 C-10.12818359 0.06166016 -9.29738281 -0.11300781 -8.44140625 -0.29296875 C-7.30747437 -0.53309692 -7.30747437 -0.53309692 -6.15063477 -0.77807617 C-3.83604673 -1.01691832 -2.20497644 -0.69665379 0 0 Z " fill="#228AC5" transform="translate(357,249)"/>
<path d="M0 0 C-4.48692625 2.33650114 -9.17555299 3.9431063 -13.9375 5.625 C-14.83146484 5.94984375 -15.72542969 6.2746875 -16.64648438 6.609375 C-17.94875977 7.06957031 -17.94875977 7.06957031 -19.27734375 7.5390625 C-20.06359131 7.81959473 -20.84983887 8.10012695 -21.65991211 8.38916016 C-24.19391453 9.05061807 -26.39225434 9.10799434 -29 9 C-29 7.68 -29 6.36 -29 5 C-28.44014404 4.823479 -27.88028809 4.64695801 -27.3034668 4.46508789 C-24.76473181 3.66447676 -22.22611469 2.8634925 -19.6875 2.0625 C-18.80642578 1.78470703 -17.92535156 1.50691406 -17.01757812 1.22070312 C-16.17001953 0.95322266 -15.32246094 0.68574219 -14.44921875 0.41015625 C-13.66893311 0.16402588 -12.88864746 -0.08210449 -12.0847168 -0.33569336 C-7.16630241 -1.90297355 -4.98841515 -1.60005769 0 0 Z " fill="#1B7FC0" transform="translate(385,243)"/>
<path d="M0 0 C-5.27846038 5.27846038 -17.27474487 5.2805866 -24.625 6.25 C-25.63651123 6.38825195 -25.63651123 6.38825195 -26.66845703 6.52929688 C-30.01555919 6.93849047 -32.79189794 7.13993474 -36 6 C-36 5.34 -36 4.68 -36 4 C-37.98 4 -39.96 4 -42 4 C-42 3.67 -42 3.34 -42 3 C-41.18321777 2.94465088 -40.36643555 2.88930176 -39.52490234 2.83227539 C-35.80805547 2.57869809 -32.09153242 2.32064338 -28.375 2.0625 C-27.08980469 1.97548828 -25.80460937 1.88847656 -24.48046875 1.79882812 C-22.61455078 1.66831055 -22.61455078 1.66831055 -20.7109375 1.53515625 C-19.56931152 1.456604 -18.42768555 1.37805176 -17.25146484 1.29711914 C-2.5715103 -0.04433638 -2.5715103 -0.04433638 0 0 Z " fill="#1B81C2" transform="translate(234,336)"/>
<path d="M0 0 C0.33 0 0.66 0 1 0 C1 9.24 1 18.48 1 28 C-2.01125 28.804375 -5.0225 29.60875 -8.125 30.4375 C-9.06230957 30.68943115 -9.99961914 30.9413623 -10.96533203 31.20092773 C-15.29303536 32.34806869 -19.56010742 33.36676942 -24 34 C-21.89734696 31.89734696 -20.96227255 31.51868443 -18.19140625 30.7109375 C-17.44439453 30.49179688 -16.69738281 30.27265625 -15.92773438 30.046875 C-15.14720703 29.82515625 -14.36667969 29.6034375 -13.5625 29.375 C-12.39750977 29.03082031 -12.39750977 29.03082031 -11.20898438 28.6796875 C-7.99111177 27.74841687 -5.37360973 27 -2 27 C-0.98412022 23.95236066 -0.80195594 21.65281033 -0.68359375 18.45703125 C-0.64169922 17.38388672 -0.59980469 16.31074219 -0.55664062 15.20507812 C-0.51732422 14.08552734 -0.47800781 12.96597656 -0.4375 11.8125 C-0.39431641 10.68134766 -0.35113281 9.55019531 -0.30664062 8.38476562 C-0.20050901 5.58996646 -0.09845615 2.79507838 0 0 Z " fill="#0F5690" transform="translate(338,92)"/>
<path d="M0 0 C0.33 0 0.66 0 1 0 C1 13.2 1 26.4 1 40 C-3.455 40.495 -3.455 40.495 -8 41 C-6.68 40.34 -5.36 39.68 -4 39 C-1.32383816 36.47329554 -1.00543496 35.04609432 -0.56762695 31.33300781 C-0.5263778 29.87339006 -0.5008061 28.41327177 -0.48828125 26.953125 C-0.47033005 26.18192322 -0.45237885 25.41072144 -0.43388367 24.6161499 C-0.37984231 22.16082168 -0.3459058 19.70568714 -0.3125 17.25 C-0.27932136 15.58200434 -0.24483118 13.91403421 -0.20898438 12.24609375 C-0.12411978 8.1642024 -0.05727974 4.08236786 0 0 Z " fill="#044C88" transform="translate(360,203)"/>
<path d="M0 0 C0.99 0.33 1.98 0.66 3 1 C1.68374806 4.94875582 -0.05365398 5.54992713 -3.5625 7.6875 C-5.08037109 8.62142578 -5.08037109 8.62142578 -6.62890625 9.57421875 C-7.41136719 10.04472656 -8.19382812 10.51523437 -9 11 C-9.66 9.68 -10.32 8.36 -11 7 C-7.52671426 4.22137141 -3.9587532 2.01536527 0 0 Z " fill="#1972B2" transform="translate(275,288)"/>
<path d="M0 0 C6.6 0 13.2 0 20 0 C19.67 0.66 19.34 1.32 19 2 C16.28553021 2.31241455 13.66090639 2.51336592 10.9375 2.625 C10.17888672 2.66367188 9.42027344 2.70234375 8.63867188 2.7421875 C6.75952805 2.83673562 4.87979664 2.91946756 3 3 C2.87625 4.134375 2.7525 5.26875 2.625 6.4375 C2.41875 7.613125 2.2125 8.78875 2 10 C1.01 10.495 1.01 10.495 0 11 C0 7.37 0 3.74 0 0 Z " fill="#4EA9D9" transform="translate(314,200)"/>
<path d="M0 0 C-0.99 0.495 -0.99 0.495 -2 1 C-2 1.66 -2 2.32 -2 3 C-1.01 3.33 -0.02 3.66 1 4 C-2.96 4.99 -6.92 5.98 -11 7 C-12.24546405 4.50907189 -11.7767578 3.58919267 -11 1 C-7.32589215 -0.17571451 -3.83070817 -0.07366746 0 0 Z " fill="#0A4885" transform="translate(231,308)"/>
<path d="M0 0 C0.33 0 0.66 0 1 0 C1 3.96 1 7.92 1 12 C3.64 12 6.28 12 9 12 C9 12.99 9 13.98 9 15 C5.7 15 2.4 15 -1 15 C-1.07822869 9.83690648 -1.04225175 5.08097726 0 0 Z " fill="#0C6AAC" transform="translate(137,211)"/>
<path d="M0 0 C1.23556641 0.01740234 1.23556641 0.01740234 2.49609375 0.03515625 C3.32238281 0.04417969 4.14867187 0.05320313 5 0.0625 C5.63808594 0.07410156 6.27617187 0.08570313 6.93359375 0.09765625 C6.27359375 0.57203125 5.61359375 1.04640625 4.93359375 1.53515625 C3.94359375 2.30859375 3.94359375 2.30859375 2.93359375 3.09765625 C2.93359375 3.42765625 2.93359375 3.75765625 2.93359375 4.09765625 C-1.68640625 4.09765625 -6.30640625 4.09765625 -11.06640625 4.09765625 C-10.73640625 3.43765625 -10.40640625 2.77765625 -10.06640625 2.09765625 C-7.73924625 1.72364839 -5.40522763 1.39000892 -3.06640625 1.09765625 C-2.06640625 0.09765625 -2.06640625 0.09765625 0 0 Z " fill="#0776BE" transform="translate(328.06640625,252.90234375)"/>
<path d="M0 0 C0.33 0.99 0.66 1.98 1 3 C-2.3 6.3 -5.6 9.6 -9 13 C-9.33 12.01 -9.66 11.02 -10 10 C-6.7 6.7 -3.4 3.4 0 0 Z " fill="#1C7FC0" transform="translate(61,270)"/>
<path d="M0 0 C0 3 0 3 -1.96875 5.26171875 C-2.8040625 6.06222656 -3.639375 6.86273438 -4.5 7.6875 C-5.3353125 8.49574219 -6.170625 9.30398438 -7.03125 10.13671875 C-8.00578125 11.05904297 -8.00578125 11.05904297 -9 12 C-10.32 11.34 -11.64 10.68 -13 10 C-12.22914062 9.44570313 -11.45828125 8.89140625 -10.6640625 8.3203125 C-9.66117187 7.59585937 -8.65828125 6.87140625 -7.625 6.125 C-6.62726563 5.40570313 -5.62953125 4.68640625 -4.6015625 3.9453125 C-2.00530106 2.1005342 -2.00530106 2.1005342 0 0 Z " fill="#3084C3" transform="translate(83,252)"/>
<path d="M0 0 C4.95 0 9.9 0 15 0 C14.67 1.32 14.34 2.64 14 4 C11.36 3.67 8.72 3.34 6 3 C6 2.34 6 1.68 6 1 C4.02 1 2.04 1 0 1 C0 0.67 0 0.34 0 0 Z " fill="#2585C0" transform="translate(192,339)"/>
<path d="M0 0 C0 0.66 0 1.32 0 2 C-1.65 2.33 -3.3 2.66 -5 3 C-5 3.66 -5 4.32 -5 5 C-6.98 5 -8.96 5 -11 5 C-11 4.01 -11 3.02 -11 2 C-7.06425135 -0.62383243 -4.54354105 -1.51451368 0 0 Z " fill="#3899CD" transform="translate(342,252)"/>
<path d="M0 0 C0.98484375 0.02707031 1.9696875 0.05414063 2.984375 0.08203125 C3.73203125 0.11683594 4.4796875 0.15164063 5.25 0.1875 C5.25 0.8475 5.25 1.5075 5.25 2.1875 C0.3 2.5175 -4.65 2.8475 -9.75 3.1875 C-5.5452889 0.03396667 -4.89908143 -0.17496719 0 0 Z " fill="#1976B9" transform="translate(212.75,338.8125)"/>
<path d="M0 0 C0.66 1.32 1.32 2.64 2 4 C2.66 3.835 3.32 3.67 4 3.5 C7.73099794 2.87816701 11.21873378 2.93591074 15 3 C15 3.33 15 3.66 15 4 C13.43883181 4.33951619 11.87598662 4.67132544 10.3125 5 C9.00732422 5.2784375 9.00732422 5.2784375 7.67578125 5.5625 C5.06287036 5.98972047 2.64186962 6.07616201 0 6 C0 4.02 0 2.04 0 0 Z " fill="#185F98" transform="translate(340,241)"/>
<path d="M0 0 C0.33 0 0.66 0 1 0 C1 3.3 1 6.6 1 10 C1.66 10.33 2.32 10.66 3 11 C2.34 11.66 1.68 12.32 1 13 C0.60235737 14.98821313 0.26224651 16.98944339 0 19 C-0.33 19 -0.66 19 -1 19 C-1.12086218 12.56744599 -0.82351864 6.38226945 0 0 Z " fill="#248AC7" transform="translate(137,198)"/>
<path d="M0 0 C-2.61673759 1.40182371 -5.0371669 2.60495559 -8 3 C-8.66 2.34 -9.32 1.68 -10 1 C-10 0.34 -10 -0.32 -10 -1 C-6.06329512 -2.31223496 -3.87511856 -1.24296256 0 0 Z " fill="#2989C6" transform="translate(385,243)"/>
<path d="M0 0 C0.66 0.33 1.32 0.66 2 1 C0.90751403 2.50852857 -0.19938499 4.00662831 -1.3125 5.5 C-1.92738281 6.3353125 -2.54226563 7.170625 -3.17578125 8.03125 C-3.77777344 8.6809375 -4.37976563 9.330625 -5 10 C-5.99 10 -6.98 10 -8 10 C-5.33333333 6.66666667 -2.66666667 3.33333333 0 0 Z " fill="#1C5487" transform="translate(285,154)"/>
<path d="M0 0 C0.66 0.99 1.32 1.98 2 3 C-2.29 3 -6.58 3 -11 3 C-6.61017006 -0.29237246 -5.28011468 -0.58667941 0 0 Z " fill="#1386C6" transform="translate(172,334)"/>
<path d="M0 0 C1.98 0.66 3.96 1.32 6 2 C6 2.66 6 3.32 6 4 C7.32 4.33 8.64 4.66 10 5 C10 5.66 10 6.32 10 7 C5.56541027 5.6062718 3.12621626 3.39417765 0 0 Z " fill="#094175" transform="translate(471,349)"/>
<path d="M0 0 C-1.4638611 4.39158329 -3.97831338 4.87947433 -8 7 C-7.8125 5.1875 -7.8125 5.1875 -7 3 C-2.82142857 0 -2.82142857 0 0 0 Z " fill="#3178AE" transform="translate(397,224)"/>
<path d="M0 0 C1.32 0 2.64 0 4 0 C4 1.65 4 3.3 4 5 C2.68 5 1.36 5 0 5 C0 3.35 0 1.7 0 0 Z " fill="#C8DCE7" transform="translate(200,290)"/>
<path d="M0 0 C2.97 0 5.94 0 9 0 C7.02 0.99 7.02 0.99 5 2 C4.67 2.33 4.34 2.66 4 3 C2.33382885 3.04063832 0.66611905 3.042721 -1 3 C-0.67 2.01 -0.34 1.02 0 0 Z " fill="#1C84C3" transform="translate(326,253)"/>
<path d="M0 0 C2.1875 0.3125 2.1875 0.3125 4 1 C4 1.99 4 2.98 4 4 C1.69 3.67 -0.62 3.34 -3 3 C-1.75 1.4375 -1.75 1.4375 0 0 Z " fill="#127AC0" transform="translate(383,239)"/>
<path d="M0 0 C0.33 0.99 0.66 1.98 1 3 C-1.31 4.98 -3.62 6.96 -6 9 C-6.66 8.67 -7.32 8.34 -8 8 C-5.36 5.36 -2.72 2.72 0 0 Z " fill="#55AFDD" transform="translate(997,187)"/>
<path d="M0 0 C0 0.66 0 1.32 0 2 C-4.40914783 3.10228696 -8.48382401 3.07654536 -13 3 C-8.72816203 0.15210802 -5.07638947 0 0 0 Z " fill="#2D6192" transform="translate(340,127)"/>
<path d="M0 0 C0 3 0 3 -1.53125 4.60546875 C-2.1809375 5.12753906 -2.830625 5.64960938 -3.5 6.1875 C-4.1496875 6.71730469 -4.799375 7.24710937 -5.46875 7.79296875 C-5.9740625 8.19128906 -6.479375 8.58960938 -7 9 C-6.19095897 4.20719998 -3.74015409 2.86479887 0 0 Z " fill="#1577B9" transform="translate(69,263)"/>
</svg>
